# xmcd
#
# Track frame offsets: 
#        150
#        15888
#        32089
#        50317
#        60853
#        78033
#        98691
#        111629
#        133115
#        150925
#        168647
#        187741
#        206415
#        226866
#        240189
#        256960
#        277289
#        290247
#        304120
#        312389
#        318052
#        335777
#
# Disc length: 4713 seconds
#
# Revision: 0
# Processed by: cddbd v1.5.2PL0 Copyright (c) Steve Scherf et al.
# Submitted via: ExactAudioCopyFreeDBPlugin 1.0
#
DISCID=20126716
DTITLE=Dimitri van Toren - Liedjes om te koesteren
DYEAR=2017
DGENRE=Nederlands
TTITLE0=Als je weggaat (met jou in mijn hoofd)
TTITLE1=Werk aan de winkel
TTITLE2=Ik ken alleen mezelf nog niet
TTITLE3=Hé kom aan
TTITLE4=Sophia
TTITLE5=Nog altijd
TTITLE6=Wat kan ik anders doen
TTITLE7=En eventjes zweven door de eeuwigheid
TTITLE8=Lied voor kinderen
TTITLE9=Ieders eigen omweg (live)
TTITLE10=Er staren steeds meer mensen naar de hemel
TTITLE11=Alles zal zich weer herhalen
TTITLE12=Dan zal het duidelijk zijn
TTITLE13=Brief uit de winter
TTITLE14=Kijk es in de spiegel
TTITLE15=Amerika-O-Amerika
TTITLE16=Bij hoog en bij laag
TTITLE17=Toevallig nog wel iets
TTITLE18=Met mijn ogen
TTITLE19=Een gelukkig man
TTITLE20=Probeer dan niet te haten
TTITLE21=Muzikant (over heimwee en verlangen)
EXTD=
EXTT0=
EXTT1=
EXTT2=
EXTT3=
EXTT4=
EXTT5=
EXTT6=
EXTT7=
EXTT8=
EXTT9=
EXTT10=
EXTT11=
EXTT12=
EXTT13=
EXTT14=
EXTT15=
EXTT16=
EXTT17=
EXTT18=
EXTT19=
EXTT20=
EXTT21=
PLAYORDER=
